<svg xmlns="http://www.w3.org/2000/svg" viewBox="0 0 80 80" fill="none">
  <!-- Grid lines -->
  <line x1="12" y1="60" x2="68" y2="60" stroke="#2c2e2a" stroke-width="1.5" stroke-linecap="round" opacity="0.2"/>
  <line x1="12" y1="45" x2="68" y2="45" stroke="#2c2e2a" stroke-width="1.5" stroke-linecap="round" opacity="0.2"/>
  <line x1="12" y1="30" x2="68" y2="30" stroke="#2c2e2a" stroke-width="1.5" stroke-linecap="round" opacity="0.2"/>
  <line x1="12" y1="15" x2="68" y2="15" stroke="#2c2e2a" stroke-width="1.5" stroke-linecap="round" opacity="0.2"/>
  
  <!-- Trending line (main) -->
  <path d="M15 50c8-5 16 2 24-8s16-12 28-4" stroke="#2c2e2a" stroke-width="2" stroke-linecap="round" stroke-linejoin="round"/>
  
  <!-- Trending line (secondary) -->
  <path d="M15 55c10-2 18 4 26-2s14-8 26-2" stroke="#2c2e2a" stroke-width="2" stroke-linecap="round" stroke-linejoin="round" opacity="0.4"/>
  
  <!-- Data points -->
  <circle cx="22" cy="45" r="4" stroke="#8ed462" stroke-width="2" stroke-linecap="round"/>
  <circle cx="40" cy="38" r="4" stroke="#8ed462" stroke-width="2" stroke-linecap="round"/>
  <circle cx="58" cy="32" r="4" stroke="#8ed462" stroke-width="2" stroke-linecap="round"/>
  
  <!-- Bar chart elements -->
  <rect x="18" y="52" width="6" height="12" rx="1" stroke="#8ed462" stroke-width="1.5" stroke-linecap="round" stroke-linejoin="round" opacity="0.4"/>
  <rect x="32" y="48" width="6" height="16" rx="1" stroke="#8ed462" stroke-width="1.5" stroke-linecap="round" stroke-linejoin="round" opacity="0.4"/>
  <rect x="46" y="44" width="6" height="20" rx="1" stroke="#8ed462" stroke-width="1.5" stroke-linecap="round" stroke-linejoin="round" opacity="0.4"/>
  <rect x="60" y="40" width="6" height="24" rx="1" stroke="#8ed462" stroke-width="1.5" stroke-linecap="round" stroke-linejoin="round" opacity="0.4"/>
</svg>
